<?xml version="1.0" encoding="UTF-8" ?>
<!DOCTYPE svg PUBLIC "-//W3C//DTD SVG 1.1//EN" "http://www.w3.org/Graphics/SVG/1.1/DTD/svg11.dtd">
<svg width="739pt" height="147pt" viewBox="0 0 739 147" version="1.1" xmlns="http://www.w3.org/2000/svg">
<g id="#123a49ff">
</g>
<g id="#909090ff">
<path fill="#909090" opacity="1.00" d=" M 125.40 7.30 L 125.71 6.74 C 129.54 6.76 133.37 6.76 137.21 6.73 L 137.64 7.23 C 137.66 24.83 137.65 42.43 137.65 60.04 C 140.04 58.43 141.44 55.67 143.88 54.04 C 143.36 58.61 143.13 63.29 144.04 67.82 C 132.38 84.39 134.87 109.85 151.23 122.45 C 148.20 125.15 145.34 128.04 142.63 131.05 C 139.09 128.06 135.17 125.07 133.22 120.74 C 129.20 113.41 126.24 105.37 125.39 97.01 C 125.39 67.11 125.37 37.20 125.40 7.30 Z" />
</g>
<g id="#676767ff">
<path fill="#676767" opacity="1.00" d=" M 29.04 48.12 C 36.14 43.68 44.60 41.74 52.91 41.54 C 51.36 43.86 51.65 46.82 50.12 49.15 C 49.32 50.49 49.28 52.08 49.09 53.59 C 38.68 55.16 28.92 61.47 23.79 70.74 C 21.79 74.37 20.10 78.24 19.21 82.29 C 24.74 82.28 30.27 82.12 35.80 82.26 C 35.26 85.81 35.59 89.40 35.28 92.96 C 29.43 93.09 23.59 92.91 17.74 93.03 C 17.76 106.37 24.42 119.66 36.08 126.50 C 35.06 130.63 35.73 134.89 35.33 139.08 C 20.19 133.20 9.61 118.56 6.20 103.01 C 4.06 91.50 5.29 79.21 10.66 68.72 C 14.97 60.52 21.02 52.94 29.04 48.12 Z" />
</g>
<g id="#777777ff">
<path fill="#777777" opacity="1.00" d=" M 52.91 41.54 C 62.58 41.32 72.44 43.57 80.76 48.60 C 78.97 49.78 76.88 50.89 76.01 52.97 C 75.37 55.02 75.36 57.19 75.11 59.30 C 67.40 54.48 58.12 52.41 49.09 53.59 C 49.28 52.08 49.32 50.49 50.12 49.15 C 51.65 46.82 51.36 43.86 52.91 41.54 Z" />
</g>
<g id="#999999ff">
<path fill="#999999" opacity="1.00" d=" M 143.88 54.04 C 151.75 46.58 162.45 42.18 173.25 41.65 C 172.01 43.16 170.65 44.60 169.68 46.30 C 169.33 48.56 169.56 50.86 169.19 53.12 C 159.48 55.01 150.02 59.72 144.04 67.82 C 143.13 63.29 143.36 58.61 143.88 54.04 Z" />
<path fill="#999999" opacity="1.00" d=" M 142.63 131.05 C 145.34 128.04 148.20 125.15 151.23 122.45 C 156.64 126.72 163.17 129.70 170.08 130.31 C 166.57 133.23 167.34 137.94 167.73 141.93 C 158.56 140.83 149.84 136.75 142.63 131.05 Z" />
</g>
<g id="#a4a4a5ff">
<path fill="#a4a4a5" opacity="1.00" d=" M 173.25 41.65 C 185.30 40.81 197.62 44.60 206.83 52.48 C 203.42 54.58 200.51 57.46 198.59 60.99 C 190.26 54.78 179.58 51.47 169.19 53.12 C 169.56 50.86 169.33 48.56 169.68 46.30 C 170.65 44.60 172.01 43.16 173.25 41.65 Z" />
</g>
<g id="#c7c8c9ff">
<path fill="#c7c8c9" opacity="1.00" d=" M 271.18 47.69 C 281.06 42.03 292.95 40.46 304.12 42.18 C 299.41 45.35 295.74 49.75 291.91 53.87 C 284.98 54.42 278.27 57.44 272.91 61.76 C 272.36 60.99 271.39 60.37 271.47 59.31 C 271.29 55.44 271.88 51.54 271.18 47.69 Z" />
</g>
<g id="#d0d1d2ff">
<path fill="#d0d1d2" opacity="1.00" d=" M 304.12 42.18 C 310.20 43.03 316.07 45.17 321.35 48.30 C 318.47 52.73 319.57 58.14 319.74 63.09 C 312.44 56.18 301.92 52.56 291.91 53.87 C 295.74 49.75 299.41 45.35 304.12 42.18 Z" />
</g>
<g id="#b8b9baff">
<path fill="#b8b9ba" opacity="1.00" d=" M 475.17 44.27 C 485.63 40.76 497.18 40.64 507.75 43.75 C 507.04 48.05 508.32 52.51 506.79 56.69 C 497.20 52.30 485.48 52.57 476.16 57.56 C 474.77 53.30 475.94 48.80 475.18 44.45 L 475.17 44.27 Z" />
<path fill="#b8b9ba" opacity="1.00" d=" M 475.39 126.42 C 476.73 127.15 478.01 127.98 479.33 128.76 C 488.13 131.38 497.81 130.19 506.08 126.37 C 509.23 129.84 505.88 135.00 508.96 138.66 C 503.87 140.89 498.31 141.55 492.87 142.41 C 487.60 142.62 482.34 141.71 477.21 140.56 C 477.32 137.97 477.83 135.34 477.35 132.77 C 476.32 130.76 475.09 128.79 475.39 126.42 Z" />
</g>
<g id="#8c8d8dff">
<path fill="#8c8d8d" opacity="1.00" d=" M 597.55 43.50 C 607.38 40.68 618.04 40.88 627.79 43.99 C 627.37 47.23 627.61 50.50 627.53 53.76 C 627.58 54.86 626.63 55.60 626.10 56.44 C 616.91 52.60 606.09 52.58 597.09 56.96 C 597.84 52.50 597.35 47.98 597.55 43.50 Z" />
</g>
<g id="#a9aaabff">
<path fill="#a9aaab" opacity="1.00" d=" M 507.75 43.75 C 527.71 49.84 542.48 69.79 542.56 90.65 C 542.77 108.07 542.72 125.49 542.68 142.91 C 538.33 143.05 533.97 142.98 529.62 142.99 C 529.57 136.99 529.61 131.00 529.61 125.00 C 529.56 123.63 529.83 122.17 529.05 120.94 C 527.81 117.13 528.89 113.11 528.51 109.21 C 526.63 108.93 524.73 108.88 522.85 108.82 C 524.85 105.37 526.33 101.65 527.79 97.96 C 528.19 91.67 527.69 85.26 526.19 79.13 C 525.17 71.82 519.82 66.12 514.52 61.42 C 512.33 59.27 509.34 58.31 506.79 56.69 C 508.32 52.51 507.04 48.05 507.75 43.75 Z" />
</g>
<g id="#999a9aff">
<path fill="#999a9a" opacity="1.00" d=" M 568.66 66.65 C 574.93 55.69 585.35 47.00 597.55 43.50 C 597.35 47.98 597.84 52.50 597.09 56.96 C 582.43 63.51 573.14 79.99 574.87 95.95 C 575.78 106.76 581.60 117.08 590.52 123.30 C 594.54 126.07 598.58 129.46 603.66 129.82 C 603.22 133.74 603.71 137.69 603.27 141.61 C 583.28 139.52 567.20 122.15 563.12 103.00 C 560.66 90.75 562.29 77.50 568.66 66.65 Z" />
</g>
<g id="#7e7e7eff">
<path fill="#7e7e7e" opacity="1.00" d=" M 627.79 43.99 C 647.29 50.17 661.99 69.37 662.29 89.95 C 662.50 107.61 662.54 125.28 662.37 142.94 C 658.02 142.92 653.66 143.15 649.32 142.88 C 649.41 135.98 649.29 129.07 649.40 122.17 L 648.32 122.51 C 645.80 127.27 641.88 131.23 637.44 134.23 C 637.53 130.07 637.54 125.91 637.53 121.75 C 637.65 120.41 636.68 119.40 636.00 118.37 C 641.05 112.29 645.01 105.30 647.55 97.81 C 648.01 89.90 647.07 81.84 644.66 74.29 C 640.77 66.45 634.00 60.12 626.10 56.44 C 626.63 55.60 627.58 54.86 627.53 53.76 C 627.61 50.50 627.37 47.23 627.79 43.99 Z" />
</g>
<g id="#666666ff">
<path fill="#666666" opacity="1.00" d=" M 704.06 49.64 C 711.07 43.90 722.16 41.03 730.00 47.09 C 728.20 50.51 726.05 53.74 723.92 56.96 C 721.61 56.85 719.31 56.28 717.01 56.69 C 712.26 57.87 708.59 61.30 705.06 64.47 C 703.82 59.60 705.09 54.54 704.06 49.64 Z" />
</g>
<g id="#e3e4e5ff">
<path fill="#e3e4e5" opacity="1.00" d=" M 362.26 45.26 C 385.75 45.35 409.31 45.08 432.77 45.51 C 418.73 46.30 404.62 45.78 390.56 46.33 C 390.32 49.55 390.52 52.78 390.67 55.99 C 381.19 55.95 371.72 56.06 362.24 55.97 C 362.25 52.40 362.22 48.83 362.26 45.26 Z" />
</g>
<g id="#c6c6c7ff">
<path fill="#c6c6c7" opacity="1.00" d=" M 445.55 73.64 C 450.75 60.39 461.56 49.01 475.18 44.45 C 475.94 48.80 474.77 53.30 476.16 57.56 C 462.44 64.22 453.77 79.80 455.06 95.00 C 455.64 108.19 463.99 120.11 475.39 126.42 C 475.09 128.79 476.32 130.76 477.35 132.77 C 477.83 135.34 477.32 137.97 477.21 140.56 C 461.43 135.93 449.18 122.49 444.36 106.99 C 441.28 96.12 441.61 84.25 445.55 73.64 Z" />
</g>
<g id="#d7d8d9ff">
<path fill="#d7d8d9" opacity="1.00" d=" M 390.56 46.33 C 404.62 45.78 418.73 46.30 432.77 45.51 C 419.49 65.92 406.78 86.71 393.61 107.19 C 393.38 101.53 393.48 95.87 393.58 90.22 C 393.69 88.82 392.87 87.64 392.22 86.49 C 398.56 76.29 405.06 66.20 411.40 56.01 C 404.49 55.98 397.58 56.02 390.67 55.99 C 390.52 52.78 390.32 49.55 390.56 46.33 Z" />
</g>
<g id="#bdbebfff">
<path fill="#bdbebf" opacity="1.00" d=" M 245.68 91.98 C 245.36 74.03 255.55 56.45 271.18 47.69 C 271.88 51.54 271.29 55.44 271.47 59.31 C 271.39 60.37 272.36 60.99 272.91 61.76 C 268.35 65.71 264.37 70.43 261.86 75.95 C 255.17 90.19 258.10 108.61 269.66 119.53 C 268.29 121.08 266.71 122.49 265.68 124.29 C 265.07 127.19 265.60 130.18 265.89 133.08 C 253.29 123.52 245.36 107.88 245.68 91.98 Z" />
</g>
<g id="#808181ff">
<path fill="#808181" opacity="1.00" d=" M 76.01 52.97 C 76.88 50.89 78.97 49.78 80.76 48.60 C 95.78 57.88 104.39 75.53 104.00 92.99 C 95.77 93.02 87.54 92.98 79.31 92.97 C 79.62 89.41 79.43 85.82 79.80 82.26 C 83.24 82.19 86.71 82.47 90.14 82.12 C 88.88 72.98 83.19 64.15 75.11 59.30 C 75.36 57.19 75.37 55.02 76.01 52.97 Z" />
</g>
<g id="#dadbdcff">
<path fill="#dadbdc" opacity="1.00" d=" M 321.35 48.30 C 335.66 57.06 345.66 73.03 345.93 89.98 C 346.09 107.65 346.22 125.33 345.99 143.00 C 341.65 142.99 337.31 143.02 332.98 142.98 C 332.94 135.66 332.98 128.33 332.96 121.01 C 329.64 127.10 324.72 132.23 318.73 135.74 C 315.50 131.66 319.42 125.78 316.29 121.58 C 323.32 115.29 327.85 106.77 331.15 98.05 C 331.73 90.30 330.62 82.50 328.62 75.01 C 326.58 70.45 323.45 66.41 319.74 63.09 C 319.57 58.14 318.47 52.73 321.35 48.30 Z" />
</g>
<g id="#707070ff">
<path fill="#707070" opacity="1.00" d=" M 684.00 77.06 C 687.98 66.40 693.64 55.23 704.06 49.64 C 705.09 54.54 703.82 59.60 705.06 64.47 C 700.32 70.39 696.12 77.19 695.48 84.93 C 693.42 103.94 694.72 123.10 694.26 142.18 C 690.09 142.29 685.92 142.29 681.76 142.21 C 681.61 124.79 681.76 107.37 681.69 89.95 C 681.50 85.54 682.73 81.24 684.00 77.06 Z" />
<path fill="#707070" opacity="1.00" d=" M 35.80 82.26 C 43.12 82.33 50.45 82.14 57.77 82.26 C 57.30 85.82 57.70 89.41 57.29 92.97 C 49.96 93.07 42.62 92.96 35.28 92.96 C 35.59 89.40 35.26 85.81 35.80 82.26 Z" />
</g>
<g id="#aeaeafff">
<path fill="#aeaeaf" opacity="1.00" d=" M 198.59 60.99 C 200.51 57.46 203.42 54.58 206.83 52.48 C 216.67 60.54 223.59 72.29 224.99 85.01 C 226.67 97.86 223.85 111.56 215.86 121.94 C 211.13 128.35 204.91 133.61 197.90 137.38 C 197.33 137.17 196.21 136.75 195.64 136.54 C 195.28 132.56 195.69 128.54 195.49 124.55 C 205.34 118.03 211.92 106.84 212.84 95.06 C 214.03 82.27 208.30 69.28 198.59 60.99 Z" />
</g>
<g id="#787879ff">
<path fill="#787879" opacity="1.00" d=" M 57.77 82.26 C 65.11 82.33 72.46 82.15 79.80 82.26 C 79.43 85.82 79.62 89.41 79.31 92.97 C 71.97 93.06 64.63 92.96 57.29 92.97 C 57.70 89.41 57.30 85.82 57.77 82.26 Z" />
</g>
<g id="#e1e2e3ff">
<path fill="#e1e2e3" opacity="1.00" d=" M 392.22 86.49 C 392.87 87.64 393.69 88.82 393.58 90.22 C 393.48 95.87 393.38 101.53 393.61 107.19 C 388.56 115.32 383.36 123.36 378.32 131.50 C 383.47 131.50 388.62 131.50 393.77 131.52 C 393.35 135.16 393.60 138.83 393.29 142.49 C 381.22 142.50 369.16 142.52 357.10 142.51 C 368.69 123.76 380.44 105.12 392.22 86.49 Z" />
</g>
<g id="#7d7e7eff">
<path fill="#7d7e7e" opacity="1.00" d=" M 76.97 124.18 C 82.95 120.29 86.73 114.05 90.66 108.28 C 94.05 110.13 97.53 111.82 100.88 113.77 C 94.49 127.91 81.29 138.80 65.92 141.56 C 65.35 141.29 64.20 140.74 63.63 140.47 C 63.22 137.01 63.48 133.49 63.86 130.03 C 68.49 128.81 73.08 127.05 76.97 124.18 Z" />
</g>
<g id="#afafb0ff">
<path fill="#afafb0" opacity="1.00" d=" M 522.85 108.82 C 524.73 108.88 526.63 108.93 528.51 109.21 C 528.89 113.11 527.81 117.13 529.05 120.94 C 525.72 129.47 517.39 135.55 508.96 138.66 C 505.88 135.00 509.23 129.84 506.08 126.37 C 513.29 122.35 518.96 116.04 522.85 108.82 Z" />
</g>
<g id="#898989ff">
<path fill="#898989" opacity="1.00" d=" M 603.66 129.82 C 615.53 131.58 628.02 127.45 636.00 118.37 C 636.68 119.40 637.65 120.41 637.53 121.75 C 637.54 125.91 637.53 130.07 637.44 134.23 C 627.46 140.65 615.04 143.73 603.26 141.83 L 603.27 141.61 C 603.71 137.69 603.22 133.74 603.66 129.82 Z" />
</g>
<g id="#c5c5c6ff">
<path fill="#c5c5c6" opacity="1.00" d=" M 269.66 119.53 C 273.60 123.34 278.29 126.28 283.07 128.91 C 287.05 129.94 291.20 130.38 295.31 130.09 C 292.86 131.09 290.21 131.16 287.65 131.61 C 287.26 134.98 287.74 138.40 287.17 141.76 C 279.42 141.01 272.05 137.77 265.89 133.08 C 265.60 130.18 265.07 127.19 265.68 124.29 C 266.71 122.49 268.29 121.08 269.66 119.53 Z" />
</g>
<g id="#cecfd0ff">
<path fill="#cecfd0" opacity="1.00" d=" M 295.31 130.09 C 302.99 129.48 310.51 126.77 316.29 121.58 C 319.42 125.78 315.50 131.66 318.73 135.74 C 309.19 140.83 297.93 143.62 287.17 141.76 C 287.74 138.40 287.26 134.98 287.65 131.61 C 290.21 131.16 292.86 131.09 295.31 130.09 Z" />
</g>
<g id="#a2a3a3ff">
<path fill="#a2a3a3" opacity="1.00" d=" M 170.08 130.31 C 178.86 131.46 188.01 129.26 195.49 124.55 C 195.69 128.54 195.28 132.56 195.64 136.54 C 196.21 136.75 197.33 137.17 197.90 137.38 C 188.71 142.20 177.91 143.22 167.73 141.93 C 167.34 137.94 166.57 133.23 170.08 130.31 Z" />
</g>
<g id="#717171ff">
<path fill="#717171" opacity="1.00" d=" M 36.08 126.50 C 44.30 131.62 54.60 132.20 63.86 130.03 C 63.48 133.49 63.22 137.01 63.63 140.47 C 64.20 140.74 65.35 141.29 65.92 141.56 C 55.73 143.25 45.06 142.66 35.33 139.08 C 35.73 134.89 35.06 130.63 36.08 126.50 Z" />
</g>
<g id="#d9dadbff">
<path fill="#d9dadb" opacity="1.00" d=" M 393.77 131.52 C 399.75 131.46 405.73 131.51 411.71 131.52 C 411.39 135.17 411.64 138.84 411.27 142.48 C 405.28 142.49 399.28 142.54 393.29 142.49 C 393.60 138.83 393.35 135.16 393.77 131.52 Z" />
</g>
<g id="#d2d3d4ff">
<path fill="#d2d3d4" opacity="1.00" d=" M 411.71 131.52 C 418.15 131.47 424.60 131.49 431.05 131.53 C 431.07 135.17 431.06 138.82 431.05 142.47 C 424.46 142.51 417.86 142.53 411.27 142.48 C 411.64 138.84 411.39 135.17 411.71 131.52 Z" />
</g>
</svg>
